<svg width="29" height="25" viewBox="0 0 29 25" fill="none" xmlns="http://www.w3.org/2000/svg">
<g clip-path="url(#clip0_34_69)">
<path d="M11.4317 -0.0376941C11.2344 -0.0401941 11.0166 -0.0167886 10.7497 0.0579318C10.2159 0.206839 9.97778 0.430748 9.7089 0.649972C9.44004 0.868945 9.1931 1.10563 8.9537 1.3417C8.47487 1.81405 7.89662 2.33038 7.96485 2.28775C8.03312 2.24546 7.29113 2.55664 6.62199 2.80248C6.28744 2.9252 5.93929 3.05953 5.61426 3.21141C5.2892 3.36379 4.97691 3.48536 4.64665 3.8767C4.31639 4.26788 4.27353 4.56613 4.20532 4.87971C4.13717 5.19329 4.10358 5.51339 4.0708 5.82575C4.00518 6.45047 3.88184 7.15012 3.90796 7.08104C3.93409 7.01192 3.54316 7.64371 3.16927 8.18171C2.98233 8.45081 2.79274 8.73805 2.63355 9.02603C2.47435 9.31401 2.31551 9.56952 2.31494 10.0535C2.31439 10.5374 2.47739 10.7946 2.6359 11.0829C2.79442 11.3713 2.98532 11.6477 3.17163 11.9171C3.54425 12.4557 3.93156 13.0889 3.90561 13.0198C3.87962 12.9508 3.99478 13.6624 4.05901 14.2873C4.09116 14.5994 4.12607 14.9196 4.19353 15.2333C4.26095 15.5472 4.29841 15.8465 4.62777 16.2384C4.95711 16.6302 5.27305 16.7527 5.59774 16.9057C5.92245 17.0584 6.26883 17.1853 6.60311 17.3085C7.27166 17.5554 8.01881 17.8762 7.95068 17.8334C7.88253 17.7912 8.45238 18.2964 8.9301 18.7693C9.16895 19.0059 9.41458 19.2476 9.68295 19.4671C9.9513 19.6869 10.1903 19.9073 10.7237 20.0571C11.2572 20.2073 11.5935 20.1506 11.9604 20.11C12.3272 20.0689 12.6938 20.0069 13.0483 19.9371C13.7575 19.7979 14.5746 19.6685 14.4903 19.6685C14.4061 19.6684 15.2188 19.7925 15.9276 19.933C16.282 20.0033 16.6441 20.0747 17.0108 20.1161C17.3775 20.159 17.716 20.2121 18.2498 20.0632C18.7836 19.9143 19.0217 19.6983 19.2906 19.4793C19.5595 19.2603 19.8182 19.0153 20.0576 18.7794C20.5365 18.3071 21.1029 17.8009 21.0347 17.8436C20.9664 17.8859 21.7178 17.5747 22.387 17.3288C22.7215 17.2061 23.0602 17.0698 23.3853 16.9179C23.7103 16.7655 24.0226 16.6459 24.3529 16.2546C24.6831 15.8634 24.726 15.5652 24.7942 15.2516C24.8623 14.938 24.8959 14.6179 24.9287 14.3056C24.9943 13.6809 25.1177 12.971 25.0916 13.0401C25.0655 13.1092 25.4564 12.4775 25.8302 11.9394C26.0172 11.6703 26.2068 11.3933 26.366 11.1053C26.5252 10.8173 26.684 10.5619 26.6846 10.0779C26.6851 9.59393 26.5221 9.33668 26.3636 9.04841C26.2051 8.76003 26.0166 8.47343 25.8302 8.20409C25.4576 7.6654 25.068 7.04038 25.0939 7.10952C25.1199 7.17852 25.0047 6.46685 24.9405 5.84203C24.9085 5.52934 24.8735 5.20968 24.806 4.89598C24.7386 4.58204 24.7011 4.28274 24.3717 3.89094C24.0424 3.49908 23.7265 3.37864 23.4018 3.22565C23.0771 3.07296 22.7307 2.93637 22.3964 2.81265C21.7279 2.56571 20.9807 2.25539 21.0488 2.29792C21.117 2.3401 20.5495 1.82296 20.0718 1.34984C19.8329 1.11326 19.5849 0.873638 19.3166 0.654039C19.0482 0.434291 18.8093 0.213883 18.2758 0.064033C17.7424 -0.086165 17.406 -0.0218004 17.0392 0.0192724C16.6723 0.0603452 16.3057 0.124403 15.9512 0.19424C15.2421 0.333418 14.425 0.462274 14.5092 0.462794C14.5934 0.462868 13.7807 0.328687 13.0719 0.188137C12.7175 0.117866 12.3554 0.0545693 11.9887 0.0131693C11.8054 -0.00827877 11.6291 -0.0351847 11.4317 -0.0376941ZM14.5422 5.44123C14.7287 5.44252 14.9123 5.48122 15.0785 5.5543C15.2448 5.62737 15.3892 5.73282 15.5004 5.86237L16.8999 7.49608L19.2599 8.26512C19.4332 8.32171 19.589 8.41206 19.7154 8.52918C19.8417 8.6463 19.9353 8.78704 19.9887 8.94049C20.0421 9.09395 20.0539 9.25599 20.0233 9.41407C19.9927 9.57214 19.9205 9.722 19.8122 9.85203L18.4481 11.5122L18.3324 13.6932C18.3238 13.8524 18.2731 14.0079 18.1842 14.1475C18.0954 14.2872 17.9708 14.4074 17.8199 14.499C17.6691 14.5905 17.4961 14.6509 17.3141 14.6756C17.1321 14.7002 16.946 14.6885 16.7701 14.6413L14.5186 14.0289L12.0878 14.6026C11.9088 14.6464 11.7204 14.6538 11.5376 14.6242C11.3547 14.5945 11.1822 14.5287 11.0337 14.4317C10.8851 14.3348 10.7645 14.2094 10.6812 14.0654C10.598 13.9214 10.5544 13.7627 10.5538 13.6016L10.5349 11.561L9.1567 9.7381C9.0549 9.60491 8.98977 9.45327 8.96633 9.29485C8.94289 9.13644 8.96176 8.97547 9.02148 8.82434C9.08121 8.67321 9.18021 8.53595 9.31085 8.42313C9.44149 8.3103 9.60029 8.22493 9.77502 8.17357L12.0218 7.5327L13.6006 5.82982C13.7044 5.71825 13.8336 5.62636 13.9802 5.55985C14.1267 5.49335 14.2876 5.45367 14.4526 5.44326C14.4824 5.44161 14.5123 5.44096 14.5422 5.44123Z" fill="#4F29CC"/>
<path d="M6.04639 18.4804V21.8088C6.04639 22.7021 6.43821 23.5228 7.10603 24.1709C7.43989 24.4949 7.85514 24.7841 8.39934 24.9399C8.94352 25.0958 9.63736 25.0716 10.2118 24.824L14.5024 22.9787L18.7929 24.824C18.9616 24.8958 19.1475 24.9328 19.3357 24.9318C21.323 24.9318 22.9583 23.522 22.9583 21.8088V18.4946C22.4727 18.6834 21.8624 18.924 21.9152 18.8913C21.9927 18.8429 21.3493 19.4174 20.806 19.9534C20.5344 20.2209 20.2402 20.4984 19.9351 20.7468C19.6301 20.9952 19.3607 21.2412 18.7551 21.4101C18.1495 21.579 17.7646 21.5179 17.3486 21.4691C16.9324 21.4218 16.5237 21.3415 16.1213 21.2615C15.3171 21.1021 14.3951 20.9624 14.4906 20.9625C14.5861 20.9625 13.6573 21.1077 12.8527 21.2656C12.4504 21.3447 12.0345 21.4165 11.6184 21.463C11.2022 21.509 10.8218 21.5724 10.2165 21.4019C9.61125 21.2319 9.33879 20.9818 9.03418 20.7326C8.72966 20.4835 8.45067 20.2097 8.17986 19.9411C7.63785 19.4046 6.99345 18.8311 7.07064 18.8791C7.12248 18.9117 6.52005 18.6689 6.04639 18.4804Z" fill="#4F29CC"/>
</g>
<defs>
<clipPath id="clip0_34_69">
<rect width="29" height="25" fill="white"/>
</clipPath>
</defs>
</svg>
