<svg width="35" height="27" viewBox="0 0 35 27" fill="none" xmlns="http://www.w3.org/2000/svg">
<path d="M31.2477 23.6351C31.4897 23.6351 31.7186 23.551 31.871 23.4059C32.0234 23.2609 32.0829 23.0707 32.0329 22.8881L31.5275 21.0431C31.8153 20.8284 31.9962 20.5285 31.9962 20.1951C31.9962 19.8441 31.7936 19.5327 31.479 19.3164V12.9097L29.4532 13.8768V19.3164C29.1387 19.5327 28.936 19.8441 28.936 20.1951C28.936 20.5285 29.1169 20.8284 29.4048 21.0431L28.8993 22.8881C28.8493 23.0707 28.9088 23.2609 29.0611 23.4059C29.2136 23.551 29.4425 23.6351 29.6845 23.6351H31.2477ZM31.9344 9.17111L18.7553 2.8776C18.3693 2.6942 17.9342 2.60213 17.4991 2.60213C17.064 2.60213 16.6286 2.69412 16.2449 2.8776L3.06565 9.17111C2.71374 9.33909 2.5 9.63578 2.5 9.95509C2.5 10.2745 2.71373 10.5713 3.06565 10.7395L16.2449 17.0331C16.6285 17.2167 17.0639 17.3085 17.499 17.3085C17.9341 17.3085 18.3693 17.2165 18.7552 17.0331L31.9344 10.7395C32.2863 10.5713 32.5 10.2745 32.5 9.95509C32.5 9.63578 32.2863 9.33899 31.9344 9.17111ZM17.499 18.8712C16.6781 18.8712 15.8768 18.6953 15.1784 18.3619L7.49091 14.6905V21.0123C7.49091 22.8833 11.9738 24.3979 17.499 24.3979C23.0262 24.3979 27.5087 22.8833 27.5087 21.0123V14.6905L19.8215 18.3619C19.1231 18.6953 18.32 18.8712 17.499 18.8712Z" fill="#4F29CC"/>
</svg>
