<svg width="32" height="23" viewBox="0 0 32 23" fill="none" xmlns="http://www.w3.org/2000/svg">
<path fill-rule="evenodd" clip-rule="evenodd" d="M22.7595 2.49221C25.2426 2.07975 27.475 2.16821 28.8424 2.30222C28.8861 2.30648 28.9325 2.3211 28.9826 2.36902C29.0381 2.42186 29.0909 2.51311 29.0909 2.63471V17.0486C29.0909 17.3629 28.7328 17.6066 28.3604 17.5973C26.5879 17.5533 23.9834 17.5933 21.5261 18.0404C19.8376 18.3476 18.4874 18.8606 17.4545 19.388V4.89092C17.4545 4.62782 17.5342 4.49442 17.592 4.43825C17.772 4.2634 18.3233 3.88997 19.2724 3.48675C20.1888 3.09747 21.3818 2.72107 22.7595 2.49221ZM29.2178 0.130068C27.6328 -0.0252688 25.0427 -0.130193 22.1329 0.353168C20.4528 0.632255 18.9906 1.09138 17.843 1.57899C16.728 2.05266 15.8064 2.59748 15.293 3.09604C14.7022 3.66979 14.5454 4.34331 14.5454 4.89092V21.9047C14.5454 22.3878 14.9658 22.8137 15.5799 22.9533C16.1911 23.092 16.8507 22.9145 17.2068 22.5162L17.2094 22.5131L17.2078 22.515L17.2068 22.5162C17.2068 22.5162 17.2087 22.5141 17.2104 22.5121C17.2167 22.5054 17.2298 22.4917 17.2496 22.4718C17.2893 22.4319 17.3562 22.3673 17.4507 22.2844C17.6402 22.1183 17.9387 21.8805 18.3509 21.6197C19.1744 21.0987 20.4434 20.4909 22.2094 20.1696C24.2978 19.7896 26.6034 19.7453 28.2645 19.7865C30.2715 19.8364 32 18.6075 32 17.0486V2.63471C32 1.47781 30.9739 0.302141 29.2178 0.130068Z" fill="#4F29CC"/>
<path fill-rule="evenodd" clip-rule="evenodd" d="M9.24036 2.49221C6.75741 2.07975 4.52493 2.16821 3.15747 2.30222C3.11395 2.30648 3.06742 2.3211 3.01727 2.36902C2.96196 2.42186 2.90909 2.51311 2.90909 2.63471V17.0486C2.90909 17.3629 3.26719 17.6066 3.63958 17.5973C5.41201 17.5533 8.01663 17.5933 10.4738 18.0404C12.1623 18.3476 13.5126 18.8606 14.5455 19.388V4.89092C14.5455 4.62782 14.4657 4.49442 14.408 4.43825C14.2279 4.2634 13.6767 3.88997 12.7275 3.48675C11.8112 3.09747 10.6181 2.72107 9.24036 2.49221ZM2.78204 0.130068C4.36714 -0.0252688 6.95725 -0.130193 9.86707 0.353168C11.5472 0.632255 13.0093 1.09138 14.1569 1.57899C15.272 2.05266 16.1936 2.59748 16.7069 3.09604C17.2977 3.66979 17.4545 4.34331 17.4545 4.89092V21.9047C17.4545 22.3878 17.0342 22.8137 16.4201 22.9533C15.8089 23.092 15.1492 22.9145 14.7932 22.5162L14.7905 22.5131L14.7921 22.515L14.7932 22.5162C14.7932 22.5162 14.7913 22.5141 14.7895 22.5121C14.7833 22.5054 14.7702 22.4917 14.7504 22.4718C14.7107 22.4319 14.6438 22.3673 14.5492 22.2844C14.3597 22.1183 14.0612 21.8805 13.649 21.6197C12.8256 21.0987 11.5565 20.4909 9.79062 20.1696C7.70211 19.7896 5.39652 19.7453 3.73537 19.7865C1.72849 19.8364 0 18.6075 0 17.0486V2.63471C0 1.47781 1.02608 0.302141 2.78204 0.130068Z" fill="#4F29CC"/>
</svg>
