<svg width="30" height="25" viewBox="0 0 30 25" fill="none" xmlns="http://www.w3.org/2000/svg">
<path d="M7.81879 5.17697C7.55524 5.17697 7.28657 5.19214 7.03777 5.25221C6.89206 5.28785 6.74836 5.34793 6.60815 5.4027C6.55391 5.42401 6.50518 5.45375 6.45194 5.47795C6.42982 5.48782 6.43495 5.50516 6.41295 5.51551C6.28074 5.5786 6.14703 5.62435 6.02244 5.70369C6.00495 5.71464 5.96171 5.73005 5.94434 5.74137C5.90773 5.76545 5.9021 5.79097 5.86624 5.81649C5.76427 5.88705 5.64955 5.96217 5.55383 6.04235C5.46648 6.11796 5.40125 6.22174 5.31952 6.30565C5.0431 6.57882 4.77268 6.86981 4.57749 7.2086C4.24234 7.77481 4.01915 8.39507 3.91369 9.05218C3.86283 9.04182 3.80209 9.03797 3.75748 9.05218C3.41596 9.15909 3.33985 9.78561 3.56229 10.4442C3.69275 10.8306 3.88757 11.1376 4.10888 11.3098C4.40629 12.4234 5.04573 13.3613 5.86624 13.9428V14.5821L5.20231 15.184L3.91369 15.8245C2.86199 16.3266 1.80105 16.8274 0.750611 17.3294C0.168406 17.6677 -0.0469181 18.3239 0.00857813 18.9475C0.0356727 19.3388 -0.122546 19.8517 0.281936 20.1129C0.666198 20.3031 1.15342 20.1948 1.57056 20.2261H3.83552C4.06258 19.9396 4.34637 19.6747 4.69464 19.4736L4.73363 19.4363H4.77275C6.53598 18.602 8.27685 17.7508 10.0446 16.9153L12.0752 15.975C11.9601 15.9196 11.8388 15.8787 11.7238 15.8245L10.4352 15.184L9.77128 14.5821V13.9428C10.2905 13.5756 10.7294 13.0434 11.06 12.4379C10.6145 11.7444 10.2716 10.9474 10.0446 10.1059C9.66731 9.73264 9.31367 9.31825 9.10735 8.71351C8.89504 8.09096 8.83443 7.4477 8.91216 6.90762C8.98101 6.42918 9.21957 5.97626 9.69318 5.74137C9.55372 5.65408 9.37228 5.58606 9.22457 5.51551C9.15009 5.48036 9.10585 5.43256 9.02938 5.4027C8.97502 5.38139 8.9284 5.38356 8.87317 5.36502C8.7071 5.30964 8.53814 5.24294 8.36545 5.21453C8.3522 5.2126 8.3397 5.2167 8.32633 5.21453C8.16425 5.18997 7.98487 5.17516 7.81879 5.17697Z" fill="#4F29CC"/>
<path d="M16.8777 0C16.4353 0 15.9992 -2.93946e-05 15.5806 0.120364C15.3369 0.120364 15.0995 0.240845 14.8645 0.361238C14.7733 0.361238 14.6808 0.361208 14.5908 0.481602H14.4884C14.2672 0.601995 14.0498 0.722446 13.8398 0.842839H13.7373C13.6761 0.963232 13.6274 0.963174 13.5674 1.08357C13.3962 1.20396 13.2163 1.20402 13.055 1.4448C12.9088 1.5652 12.7826 1.6855 12.6452 1.8059C12.1814 2.28747 11.7789 2.7691 11.4511 3.37106C10.8882 4.21382 10.4679 5.29735 10.2906 6.38089H10.0517C9.4781 6.62168 9.33689 7.58485 9.7104 8.66839C9.92959 9.39075 10.2944 9.87226 10.6661 10.113C11.1655 12.0393 12.2233 13.6044 13.6011 14.5675V15.6511L12.509 16.6143L10.3247 17.6979C8.55837 18.5406 6.79875 19.3833 5.0344 20.2261C4.05656 20.7077 3.67829 21.9115 3.77152 22.8747C3.817 23.597 3.56995 24.4398 4.24925 24.8009C4.89469 25.1621 5.66471 24.9214 6.36551 24.9214H12.509H21.2464C23.8319 24.9214 26.4099 25.0418 28.9954 24.9214C29.8339 24.9214 30.0663 24.0786 29.9851 23.3563C30.0001 22.3931 30.0601 21.3095 29.2678 20.5872C28.6217 19.9852 27.702 19.7445 26.9135 19.2629C25.7551 18.7813 24.5892 18.1794 23.432 17.6979L21.2464 16.6143L20.1542 15.6511V14.5675C21.5326 13.6044 22.591 12.0393 23.0896 10.113C23.462 9.87226 23.8269 9.39075 24.0456 8.66839C24.4192 7.58485 24.278 6.62168 23.7044 6.38089H23.4658C23.2883 5.29735 22.8684 4.21382 22.3048 3.37106C21.9774 2.7691 21.5751 2.28747 21.1102 1.8059C20.9727 1.6855 20.8478 1.5652 20.7003 1.4448H20.6666C20.2392 1.08363 19.7631 0.722388 19.267 0.481602C19.142 0.481602 19.0208 0.361238 18.8921 0.361238C18.8009 0.361238 18.7121 0.240874 18.6184 0.240874C18.3398 0.120481 18.0561 0.120393 17.7649 0H17.6974H16.8777Z" fill="#4F29CC"/>
</svg>
