<svg width="25" height="23" viewBox="0 0 25 23" fill="none" xmlns="http://www.w3.org/2000/svg">
<g clip-path="url(#clip0_34_44)">
<path d="M-0.000154948 23H15.6248V10.718C16.6248 11.2393 17.6665 11.5 18.7498 11.5C20.4832 11.5 21.9582 10.9403 23.1748 9.821C24.3915 8.70167 24.9998 7.34467 24.9998 5.75C24.9998 4.15533 24.3915 2.806 23.1748 1.702C21.9582 0.598 20.4832 0.0306667 18.7498 0H6.24984C4.53318 0 3.05818 0.567333 1.82485 1.702C0.591512 2.83667 -0.0168216 4.186 -0.000154948 5.75V23ZM3.12485 20.125V5.75C3.12485 4.968 3.43318 4.29333 4.04985 3.726C4.66651 3.15867 5.39984 2.875 6.24984 2.875H13.3748C12.7915 3.795 12.4998 4.75333 12.4998 5.75V20.125H3.12485ZM4.69984 18.699H10.9498V17.25H4.69984V18.699ZM4.69984 14.375H10.9498V12.949H4.69984V14.375ZM4.69984 10.074H10.9498V8.625H4.69984V10.074ZM4.69984 5.75H10.9498V4.324H4.69984V5.75ZM15.6248 5.75C15.6248 4.968 15.9332 4.29333 16.5498 3.726C17.1665 3.15867 17.8998 2.875 18.7498 2.875C19.5998 2.875 20.3332 3.15867 20.9498 3.726C21.5665 4.29333 21.8748 4.968 21.8748 5.75C21.8748 6.532 21.5665 7.21433 20.9498 7.797C20.3332 8.37967 19.5998 8.65567 18.7498 8.625C17.8998 8.59433 17.1665 8.31833 16.5498 7.797C15.9332 7.27567 15.6248 6.59333 15.6248 5.75Z" fill="#4F29CC"/>
</g>
<defs>
<clipPath id="clip0_34_44">
<rect width="25" height="23" fill="white"/>
</clipPath>
</defs>
</svg>
